<?xml version="1.0" standalone="no"?>
<!DOCTYPE svg PUBLIC "-//W3C//DTD SVG 20010904//EN"
 "http://www.w3.org/TR/2001/REC-SVG-20010904/DTD/svg10.dtd">
<svg version="1.0" xmlns="http://www.w3.org/2000/svg"
 width="1024.000000pt" height="1024.000000pt" viewBox="0 0 1024.000000 1024.000000"
 preserveAspectRatio="xMidYMid meet">
<metadata>
Created by potrace 1.14, written by Peter Selinger 2001-2017
</metadata>
<g transform="translate(0.000000,1024.000000) scale(0.100000,-0.100000)"
fill="#000000" stroke="none">
<path d="M4955 8691 c-23 -11 -48 -33 -60 -52 -18 -32 -20 -54 -20 -419 0
-368 1 -387 21 -420 41 -70 132 -94 209 -54 78 41 77 37 78 457 0 205 -3 386
-7 403 -4 17 -19 43 -34 57 -52 50 -118 60 -187 28z"/>
<path d="M3353 8265 c-45 -19 -92 -72 -99 -113 -8 -43 6 -86 57 -171 22 -34
39 -65 39 -68 0 -3 8 -17 18 -31 11 -15 32 -52 49 -82 89 -162 208 -359 232
-384 97 -97 295 26 249 154 -5 14 -64 121 -131 238 -67 117 -133 232 -146 255
-77 135 -110 182 -142 199 -40 21 -82 22 -126 3z"/>
<path d="M6585 8267 c-17 -8 -35 -20 -42 -28 -9 -12 -168 -281 -237 -403 -13
-23 -52 -90 -86 -150 -41 -70 -64 -122 -65 -145 -8 -115 141 -202 235 -138 32
21 45 40 116 164 16 28 88 153 161 279 72 126 134 244 137 263 8 55 -27 118
-83 149 -34 20 -102 24 -136 9z"/>
<path d="M4948 7295 c-2 -1 -41 -5 -88 -8 -89 -7 -97 -8 -222 -32 -295 -58
-616 -207 -847 -393 -114 -92 -201 -179 -326 -329 -14 -16 -68 -96 -112 -163
-53 -82 -157 -303 -191 -405 -44 -132 -74 -252 -88 -360 -3 -22 -8 -51 -11
-65 -11 -55 -10 -398 3 -480 19 -130 23 -148 49 -250 32 -127 75 -243 133
-362 l48 -98 -34 -61 c-63 -114 -120 -278 -148 -424 -18 -97 -24 -321 -11
-438 10 -84 49 -239 84 -332 179 -474 604 -816 1117 -898 113 -19 249 -21 278
-6 47 24 78 71 78 116 l0 28 1295 0 c1274 0 1295 0 1295 -19 0 -41 40 -104 77
-121 63 -30 289 -7 448 47 300 100 562 330 708 618 91 181 128 355 122 575
-11 430 -271 837 -661 1036 -52 26 -122 57 -157 68 l-63 21 -33 80 c-38 95
-138 262 -211 357 -58 74 -219 238 -289 293 -24 19 -76 57 -114 83 l-71 48 -3
52 c-6 91 -42 280 -73 385 -220 742 -825 1284 -1575 1412 -99 17 -395 35 -407
25z"/>
<path d="M2195 7090 c-101 -22 -158 -145 -108 -231 19 -33 60 -59 461 -289
132 -75 228 -124 251 -127 101 -14 194 108 159 208 -15 43 -52 70 -268 194
-113 65 -251 145 -308 177 -115 67 -144 77 -187 68z"/>
<path d="M7462 6898 c-316 -184 -333 -195 -353 -236 -26 -52 -21 -98 15 -152
47 -71 129 -88 206 -44 25 14 63 36 85 49 309 176 518 301 539 322 29 28 41
77 33 128 -11 70 -77 125 -148 125 -39 0 -81 -21 -377 -192z"/>
<path d="M1725 5461 c-89 -37 -118 -177 -52 -249 43 -47 43 -47 447 -48 358
-1 388 0 422 17 105 53 99 230 -8 275 -27 11 -111 14 -411 13 -208 0 -387 -4
-398 -8z"/>
<path d="M7520 5452 c-19 -9 -45 -33 -58 -52 -20 -29 -23 -45 -20 -93 5 -65
27 -103 76 -128 27 -14 81 -16 421 -15 377 1 390 2 418 22 15 11 38 39 49 61
18 35 20 50 13 94 -5 31 -17 62 -31 77 -47 51 -60 52 -460 52 -335 0 -377 -2
-408 -18z"/>
<path d="M2755 4180 c-11 -5 -162 -91 -335 -192 -342 -199 -355 -210 -352
-290 2 -47 33 -105 70 -133 20 -15 42 -20 82 -20 53 1 67 8 370 184 173 100
325 193 338 205 30 29 44 90 32 137 -10 37 -50 85 -87 107 -26 14 -88 15 -118
2z"/>
<path d="M5227 2214 c-65 -23 -117 -104 -102 -162 3 -15 42 -121 87 -237 85
-223 110 -263 172 -282 94 -29 198 45 198 141 0 36 -156 449 -184 487 -41 55
-106 75 -171 53z"/>
<path d="M6018 2219 c-62 -17 -117 -85 -118 -144 0 -17 31 -109 68 -205 38
-96 76 -195 85 -220 55 -145 212 -169 285 -44 33 56 26 89 -67 328 -95 246
-116 276 -201 289 -14 2 -37 1 -52 -4z"/>
<path d="M6801 2219 c-66 -14 -123 -79 -123 -142 0 -33 138 -404 175 -470 62
-111 212 -105 268 11 27 55 26 63 -70 312 -102 266 -141 311 -250 289z"/>
</g>
</svg>
